<svg xmlns="http://www.w3.org/2000/svg" xmlns:xlink="http://www.w3.org/1999/xlink" width="500" zoomAndPan="magnify" viewBox="0 0 375 374.999991" height="500" preserveAspectRatio="xMidYMid meet" version="1.0"><defs><g/><clipPath id="cda591d64e"><path d="M 262.496094 113.910156 L 307.382812 113.910156 L 307.382812 304.496094 L 262.496094 304.496094 Z M 262.496094 113.910156 " clip-rule="nonzero"/></clipPath><clipPath id="3ac6378ebd"><path d="M 307.382812 128.871094 L 307.382812 304.425781 L 262.496094 289.464844 L 262.496094 113.910156 Z M 307.382812 128.871094 " clip-rule="nonzero"/></clipPath><clipPath id="65da8a8fbd"><path d="M 137.257812 78.132812 L 290.785156 78.132812 L 290.785156 120.347656 L 137.257812 120.347656 Z M 137.257812 78.132812 " clip-rule="nonzero"/></clipPath><clipPath id="72cf4d5a2b"><path d="M 137.257812 90.644531 L 137.257812 120.347656 L 290.667969 107.839844 L 290.667969 78.132812 Z M 137.257812 90.644531 " clip-rule="nonzero"/></clipPath><clipPath id="b034f544e7"><path d="M 82.523438 99.253906 L 114.726562 99.253906 L 114.726562 187.5625 L 82.523438 187.5625 Z M 82.523438 99.253906 " clip-rule="nonzero"/></clipPath><clipPath id="1a42ad9d1e"><path d="M 114.726562 109.988281 L 114.726562 187.503906 L 82.523438 176.769531 L 82.523438 99.253906 Z M 114.726562 109.988281 " clip-rule="nonzero"/></clipPath><clipPath id="131a5dc38d"><path d="M 89.363281 199.277344 L 114.730469 199.277344 L 114.730469 297.386719 L 89.363281 297.386719 Z M 89.363281 199.277344 " clip-rule="nonzero"/></clipPath><clipPath id="f941e7967b"><path d="M 89.363281 207.773438 L 89.363281 297.386719 L 114.730469 288.929688 L 114.730469 199.316406 Z M 89.363281 207.773438 " clip-rule="nonzero"/></clipPath><clipPath id="5b05d7a54b"><path d="M 114.730469 126.546875 L 264.730469 126.546875 L 264.730469 248.796875 L 114.730469 248.796875 Z M 114.730469 126.546875 " clip-rule="nonzero"/></clipPath></defs><rect x="-37.5" width="450" fill="#ffffff" y="-37.499999" height="449.999989" fill-opacity="1"/><rect x="-37.5" width="450" fill="#0e2442" y="-37.499999" height="449.999989" fill-opacity="1"/><g clip-path="url(#cda591d64e)"><g clip-path="url(#3ac6378ebd)"><path fill="#ffffff" d="M 307.382812 113.910156 L 307.382812 304.496094 L 262.496094 304.496094 L 262.496094 113.910156 Z M 307.382812 113.910156 " fill-opacity="1" fill-rule="nonzero"/></g></g><g clip-path="url(#65da8a8fbd)"><g clip-path="url(#72cf4d5a2b)"><path fill="#c0c0c0" d="M 137.257812 120.347656 L 137.257812 78.132812 L 290.621094 78.132812 L 290.621094 120.347656 Z M 137.257812 120.347656 " fill-opacity="1" fill-rule="nonzero"/></g></g><g clip-path="url(#b034f544e7)"><g clip-path="url(#1a42ad9d1e)"><path fill="#ffffff" d="M 114.726562 99.253906 L 114.726562 187.5625 L 82.523438 187.5625 L 82.523438 99.253906 Z M 114.726562 99.253906 " fill-opacity="1" fill-rule="nonzero"/></g></g><g clip-path="url(#131a5dc38d)"><g clip-path="url(#f941e7967b)"><path fill="#c0c0c0" d="M 89.363281 297.386719 L 89.363281 199.277344 L 114.730469 199.277344 L 114.730469 297.386719 Z M 89.363281 297.386719 " fill-opacity="1" fill-rule="nonzero"/></g></g><path fill="#ffffff" d="M 146.867188 192.761719 C 146.820312 191.558594 146.632812 190.378906 146.304688 189.234375 L 147.5625 189.234375 C 147.980469 189.234375 148.320312 188.894531 148.320312 188.480469 L 148.320312 178.167969 C 148.320312 177.75 147.980469 177.410156 147.5625 177.410156 L 139.570312 177.410156 C 139.152344 177.410156 138.8125 177.75 138.8125 178.167969 L 138.8125 188.480469 C 138.8125 188.894531 139.152344 189.234375 139.570312 189.234375 L 140.867188 189.234375 C 140.480469 190.507812 140.269531 191.855469 140.257812 193.191406 C 140.242188 194.699219 140.472656 196.214844 140.925781 197.632812 L 131.40625 197.632812 L 131.40625 226.402344 L 155.605469 226.402344 L 155.605469 197.632812 L 146.246094 197.632812 C 146.710938 196.070312 146.925781 194.402344 146.863281 192.765625 Z M 140.324219 178.921875 L 146.808594 178.921875 L 146.808594 187.726562 L 140.324219 187.726562 Z M 144.730469 189.234375 C 145.101562 190.390625 145.3125 191.59375 145.359375 192.820312 C 145.417969 194.378906 145.199219 195.964844 144.730469 197.445312 L 142.453125 197.445312 C 141.988281 196.101562 141.75 194.648438 141.765625 193.207031 C 141.78125 191.855469 142.015625 190.496094 142.453125 189.234375 Z M 154.101562 224.890625 L 132.914062 224.890625 L 132.914062 199.140625 L 154.097656 199.140625 L 154.097656 224.890625 Z M 154.101562 224.890625 " fill-opacity="1" fill-rule="nonzero"/><g clip-path="url(#5b05d7a54b)"><path fill="#ffffff" d="M 242.765625 148.523438 C 228.601562 134.355469 209.765625 126.554688 189.730469 126.554688 C 169.699219 126.554688 150.867188 134.355469 136.703125 148.523438 C 122.53125 162.6875 114.730469 181.523438 114.730469 201.554688 C 114.730469 218.480469 120.234375 234.449219 130.636719 247.742188 C 130.640625 247.75 130.648438 247.753906 130.652344 247.757812 C 130.675781 247.785156 130.699219 247.808594 130.71875 247.832031 C 130.738281 247.855469 130.753906 247.875 130.773438 247.894531 C 130.792969 247.914062 130.816406 247.933594 130.832031 247.949219 C 130.855469 247.972656 130.878906 247.996094 130.90625 248.011719 C 130.921875 248.027344 130.941406 248.039062 130.960938 248.054688 C 130.988281 248.078125 131.015625 248.101562 131.046875 248.117188 C 131.0625 248.128906 131.085938 248.144531 131.101562 248.15625 C 131.132812 248.171875 131.164062 248.195312 131.191406 248.207031 C 131.21875 248.222656 131.246094 248.234375 131.269531 248.246094 C 131.296875 248.257812 131.324219 248.273438 131.347656 248.285156 C 131.382812 248.300781 131.414062 248.3125 131.449219 248.324219 C 131.46875 248.332031 131.492188 248.339844 131.515625 248.347656 C 131.546875 248.359375 131.582031 248.363281 131.617188 248.375 C 131.640625 248.378906 131.660156 248.386719 131.683594 248.390625 C 131.714844 248.398438 131.75 248.402344 131.777344 248.40625 C 131.804688 248.414062 131.835938 248.414062 131.863281 248.417969 C 131.890625 248.417969 131.917969 248.421875 131.941406 248.425781 C 131.972656 248.425781 132.007812 248.429688 132.042969 248.429688 C 132.046875 248.429688 132.058594 248.429688 132.0625 248.429688 L 247.398438 248.429688 C 247.464844 248.429688 247.53125 248.425781 247.59375 248.417969 C 247.605469 248.417969 247.617188 248.414062 247.628906 248.414062 C 247.683594 248.40625 247.734375 248.398438 247.785156 248.386719 C 247.800781 248.382812 247.816406 248.375 247.832031 248.375 C 247.878906 248.363281 247.925781 248.351562 247.972656 248.335938 C 247.992188 248.328125 248.011719 248.320312 248.03125 248.3125 C 248.070312 248.296875 248.109375 248.285156 248.148438 248.265625 C 248.167969 248.257812 248.191406 248.246094 248.214844 248.234375 C 248.25 248.214844 248.285156 248.195312 248.316406 248.175781 C 248.339844 248.164062 248.359375 248.148438 248.386719 248.132812 C 248.417969 248.113281 248.453125 248.089844 248.480469 248.066406 C 248.503906 248.050781 248.519531 248.035156 248.542969 248.019531 C 248.589844 247.980469 248.636719 247.9375 248.683594 247.894531 C 248.6875 247.886719 248.699219 247.878906 248.703125 247.871094 C 248.742188 247.832031 248.777344 247.789062 248.8125 247.742188 C 248.816406 247.738281 248.824219 247.734375 248.828125 247.730469 C 259.234375 234.4375 264.730469 218.464844 264.730469 201.539062 C 264.730469 181.507812 256.933594 162.671875 242.765625 148.507812 Z M 246.507812 244.816406 L 132.960938 244.816406 C 123.40625 232.304688 118.355469 217.367188 118.355469 201.554688 C 118.355469 162.195312 150.375 130.175781 189.730469 130.175781 C 229.089844 130.175781 261.109375 162.199219 261.109375 201.554688 C 261.109375 217.367188 256.0625 232.304688 246.507812 244.816406 Z M 246.507812 244.816406 " fill-opacity="1" fill-rule="nonzero"/></g><path fill="#ffffff" d="M 134.179688 207.078125 L 152.722656 207.078125 C 153.054688 207.078125 153.324219 206.808594 153.324219 206.476562 L 153.324219 200.894531 C 153.324219 200.558594 153.054688 200.289062 152.722656 200.289062 L 134.179688 200.289062 C 133.84375 200.289062 133.574219 200.558594 133.574219 200.894531 L 133.574219 206.476562 C 133.574219 206.808594 133.84375 207.078125 134.179688 207.078125 Z M 134.78125 201.496094 L 152.117188 201.496094 L 152.117188 205.871094 L 134.78125 205.871094 Z M 134.78125 201.496094 " fill-opacity="1" fill-rule="nonzero"/><path fill="#ffffff" d="M 134.179688 215.355469 L 152.722656 215.355469 C 153.054688 215.355469 153.324219 215.085938 153.324219 214.753906 L 153.324219 209.167969 C 153.324219 208.835938 153.054688 208.566406 152.722656 208.566406 L 134.179688 208.566406 C 133.84375 208.566406 133.574219 208.835938 133.574219 209.167969 L 133.574219 214.753906 C 133.574219 215.085938 133.84375 215.355469 134.179688 215.355469 Z M 134.78125 209.773438 L 152.117188 209.773438 L 152.117188 214.148438 L 134.78125 214.148438 Z M 134.78125 209.773438 " fill-opacity="1" fill-rule="nonzero"/><path fill="#ffffff" d="M 134.179688 223.628906 L 152.722656 223.628906 C 153.054688 223.628906 153.324219 223.359375 153.324219 223.027344 L 153.324219 217.445312 C 153.324219 217.109375 153.054688 216.839844 152.722656 216.839844 L 134.179688 216.839844 C 133.84375 216.839844 133.574219 217.109375 133.574219 217.445312 L 133.574219 223.027344 C 133.574219 223.359375 133.84375 223.628906 134.179688 223.628906 Z M 134.78125 218.046875 L 152.117188 218.046875 L 152.117188 222.421875 L 134.78125 222.421875 Z M 134.78125 218.046875 " fill-opacity="1" fill-rule="nonzero"/><path fill="#ffffff" d="M 143.507812 203.078125 C 143.144531 203.078125 142.847656 203.375 142.847656 203.738281 C 142.847656 204.101562 143.144531 204.398438 143.507812 204.398438 C 143.871094 204.398438 144.167969 204.101562 144.167969 203.738281 C 144.167969 203.375 143.871094 203.078125 143.507812 203.078125 Z M 143.507812 204.285156 C 143.207031 204.285156 142.960938 204.039062 142.960938 203.738281 C 142.960938 203.441406 143.207031 203.195312 143.507812 203.195312 C 143.808594 203.195312 144.054688 203.441406 144.054688 203.738281 C 144.054688 204.039062 143.808594 204.285156 143.507812 204.285156 Z M 143.507812 204.285156 " fill-opacity="1" fill-rule="nonzero"/><path fill="#ffffff" d="M 143.507812 211.300781 C 143.144531 211.300781 142.847656 211.597656 142.847656 211.960938 C 142.847656 212.324219 143.144531 212.621094 143.507812 212.621094 C 143.871094 212.621094 144.167969 212.324219 144.167969 211.960938 C 144.167969 211.597656 143.871094 211.300781 143.507812 211.300781 Z M 143.507812 212.503906 C 143.207031 212.503906 142.960938 212.257812 142.960938 211.960938 C 142.960938 211.660156 143.207031 211.414062 143.507812 211.414062 C 143.808594 211.414062 144.054688 211.660156 144.054688 211.960938 C 144.054688 212.257812 143.808594 212.503906 143.507812 212.503906 Z M 143.507812 212.503906 " fill-opacity="1" fill-rule="nonzero"/><path fill="#ffffff" d="M 143.453125 219.515625 C 143.089844 219.515625 142.792969 219.8125 142.792969 220.175781 C 142.792969 220.539062 143.089844 220.835938 143.453125 220.835938 C 143.8125 220.835938 144.113281 220.539062 144.113281 220.175781 C 144.113281 219.8125 143.8125 219.515625 143.453125 219.515625 Z M 143.453125 220.722656 C 143.148438 220.722656 142.90625 220.476562 142.90625 220.175781 C 142.90625 219.875 143.152344 219.628906 143.453125 219.628906 C 143.75 219.628906 143.996094 219.875 143.996094 220.175781 C 143.996094 220.476562 143.75 220.722656 143.453125 220.722656 Z M 143.453125 220.722656 " fill-opacity="1" fill-rule="nonzero"/><path fill="#ffffff" d="M 234.539062 216.523438 L 232.058594 216.523438 L 232.058594 204.308594 C 232.058594 200.273438 228.773438 196.988281 224.738281 196.988281 L 173.839844 196.988281 C 169.804688 196.988281 166.519531 200.273438 166.519531 204.308594 L 166.519531 216.523438 L 163.554688 216.523438 C 159.519531 216.523438 156.234375 219.808594 156.234375 223.84375 L 156.234375 243.902344 L 162.398438 243.902344 L 162.398438 233.453125 L 235.6875 233.453125 L 235.6875 243.902344 L 241.855469 243.902344 L 241.855469 223.84375 C 241.855469 219.808594 238.570312 216.523438 234.535156 216.523438 Z M 168.027344 204.308594 C 168.027344 201.101562 170.632812 198.496094 173.839844 198.496094 L 224.738281 198.496094 C 227.941406 198.496094 230.550781 201.101562 230.550781 204.308594 L 230.550781 215.613281 C 226.769531 215.308594 222.96875 215.058594 219.164062 214.867188 L 219.28125 210.316406 C 219.332031 208.300781 218.386719 206.753906 217.085938 206.71875 L 205.210938 206.410156 C 205.210938 206.410156 205.183594 206.410156 205.171875 206.410156 C 204.5 206.410156 203.867188 206.828125 203.4375 207.570312 C 203.070312 208.199219 202.855469 209.019531 202.832031 209.886719 L 202.714844 214.371094 C 201.570312 214.363281 200.425781 214.355469 199.285156 214.355469 C 198.929688 214.355469 198.574219 214.355469 198.21875 214.359375 L 198.097656 209.734375 C 198.074219 208.867188 197.863281 208.042969 197.496094 207.417969 C 197.054688 206.660156 196.40625 206.25 195.71875 206.257812 L 183.847656 206.566406 C 183.160156 206.582031 182.535156 207.039062 182.132812 207.816406 C 181.800781 208.460938 181.628906 209.292969 181.652344 210.164062 L 181.773438 214.757812 C 177.175781 214.964844 172.585938 215.246094 168.019531 215.617188 L 168.019531 204.308594 Z M 204.230469 214.304688 L 204.34375 209.929688 C 204.359375 209.320312 204.503906 208.738281 204.742188 208.332031 C 204.917969 208.03125 205.09375 207.917969 205.171875 207.917969 L 217.046875 208.226562 C 217.273438 208.234375 217.804688 208.960938 217.773438 210.277344 L 217.660156 214.652344 C 215.433594 214.574219 213.179688 214.503906 210.949219 214.445312 C 208.726562 214.386719 206.472656 214.339844 204.234375 214.300781 Z M 183.167969 210.125 C 183.152344 209.515625 183.265625 208.925781 183.480469 208.507812 C 183.640625 208.195312 183.816406 208.078125 183.890625 208.074219 L 195.765625 207.765625 C 195.84375 207.765625 196.015625 207.875 196.199219 208.179688 C 196.433594 208.585938 196.578125 209.164062 196.59375 209.777344 L 196.707031 214.152344 C 194.476562 214.1875 192.222656 214.234375 189.992188 214.292969 C 187.777344 214.351562 185.519531 214.421875 183.28125 214.503906 Z M 199.289062 215.867188 C 206.742188 215.867188 214.261719 216.089844 221.738281 216.523438 L 176.832031 216.523438 C 184.3125 216.085938 191.832031 215.867188 199.285156 215.867188 Z M 160.890625 242.394531 L 157.742188 242.394531 L 157.742188 233.453125 L 160.890625 233.453125 Z M 240.347656 242.394531 L 237.203125 242.394531 L 237.203125 233.453125 L 240.347656 233.453125 Z M 240.347656 231.941406 L 157.742188 231.941406 L 157.742188 229.804688 L 240.347656 229.804688 Z M 240.347656 228.292969 L 157.742188 228.292969 L 157.742188 223.84375 C 157.742188 220.636719 160.351562 218.03125 163.554688 218.03125 L 234.539062 218.03125 C 237.742188 218.03125 240.347656 220.636719 240.347656 223.84375 Z M 240.347656 228.292969 " fill-opacity="1" fill-rule="nonzero"/><path fill="#ffffff" d="M 160.917969 188.566406 L 237.171875 188.566406 C 237.589844 188.566406 237.925781 188.226562 237.925781 187.808594 L 237.925781 152.6875 C 237.925781 152.273438 237.589844 151.933594 237.171875 151.933594 L 160.917969 151.933594 C 160.5 151.933594 160.160156 152.273438 160.160156 152.6875 L 160.160156 187.808594 C 160.160156 188.226562 160.5 188.566406 160.917969 188.566406 Z M 161.671875 187.058594 L 161.671875 183.210938 L 191.75 166.5625 L 218.15625 182.632812 C 218.507812 182.851562 218.972656 182.738281 219.191406 182.382812 C 219.410156 182.027344 219.296875 181.5625 218.941406 181.34375 L 207.457031 174.355469 L 218.371094 166.417969 L 236.421875 178.703125 L 236.421875 187.058594 Z M 236.417969 153.445312 L 236.417969 176.875 L 218.773438 164.871094 C 218.511719 164.691406 218.167969 164.699219 217.910156 164.886719 L 206.054688 173.503906 L 192.164062 165.046875 C 191.929688 164.90625 191.640625 164.898438 191.402344 165.03125 L 161.671875 181.484375 L 161.671875 153.445312 Z M 236.417969 153.445312 " fill-opacity="1" fill-rule="nonzero"/><g fill="#ffffff" fill-opacity="1"><g transform="translate(170.177122, 281.131877)"><g><path d="M 18.796875 -6.359375 L 5.546875 -6.359375 L 2.6875 0 L 0.0625 0 L 10.9375 -23.796875 L 13.421875 -23.796875 L 24.296875 0 L 21.640625 0 Z M 17.875 -8.390625 L 12.171875 -21.171875 L 6.453125 -8.390625 Z M 17.875 -8.390625 "/></g></g></g><g fill="#ffffff" fill-opacity="1"><g transform="translate(194.532646, 281.131877)"><g><path d="M 3.875 -23.796875 L 6.390625 -23.796875 L 6.390625 0 L 3.875 0 Z M 3.875 -23.796875 "/></g></g></g><g fill="#ffffff" fill-opacity="1"><g transform="translate(110.347022, 305.923955)"><g><path d="M 1.0625 -8.390625 L 1.0625 0 L 2.109375 0 L 2.109375 -8.390625 Z M 1.0625 -8.390625 "/></g></g></g><g fill="#ffffff" fill-opacity="1"><g transform="translate(116.2587, 305.923955)"><g><path d="M 0.953125 -8.390625 L 0.953125 0 L 1.828125 0 L 1.828125 -7.3125 L 6.109375 0 L 7.125 0 L 7.125 -8.390625 L 6.25 -8.390625 L 6.25 -1.546875 L 2.28125 -8.390625 Z M 0.953125 -8.390625 "/></g></g></g><g fill="#ffffff" fill-opacity="1"><g transform="translate(127.064157, 305.923955)"><g><path d="M 0.140625 -8.390625 L 0.140625 -7.46875 L 2.53125 -7.46875 L 2.53125 0 L 3.578125 0 L 3.578125 -7.46875 L 5.96875 -7.46875 L 5.96875 -8.390625 Z M 0.140625 -8.390625 "/></g></g></g><g fill="#ffffff" fill-opacity="1"><g transform="translate(135.912103, 305.923955)"><g><path d="M 1.046875 -8.390625 L 1.046875 0 L 6.46875 0 L 6.46875 -0.90625 L 2.09375 -0.90625 L 2.09375 -3.96875 L 5.46875 -3.96875 L 5.46875 -4.828125 L 2.09375 -4.828125 L 2.09375 -7.484375 L 6.34375 -7.484375 L 6.34375 -8.390625 Z M 1.046875 -8.390625 "/></g></g></g><g fill="#ffffff" fill-opacity="1"><g transform="translate(145.494117, 305.923955)"><g><path d="M 0.984375 -8.390625 L 0.984375 0 L 2.046875 0 L 2.046875 -3.640625 L 4.359375 -3.640625 L 5.921875 0 L 7.015625 0 L 5.375 -3.890625 C 6.359375 -4.171875 6.9375 -5.0625 6.9375 -6.046875 C 6.9375 -7.078125 6.25 -8.390625 4.25 -8.390625 Z M 2.046875 -4.484375 L 2.046875 -7.484375 L 4.25 -7.484375 C 5.40625 -7.484375 5.890625 -6.828125 5.890625 -6.0625 C 5.890625 -5.21875 5.359375 -4.484375 4.203125 -4.484375 Z M 2.046875 -4.484375 "/></g></g></g><g fill="#ffffff" fill-opacity="1"><g transform="translate(155.810202, 305.923955)"><g><path d="M 1.0625 -8.390625 L 1.0625 0 L 2.109375 0 L 2.109375 -8.390625 Z M 1.0625 -8.390625 "/></g></g></g><g fill="#ffffff" fill-opacity="1"><g transform="translate(161.721882, 305.923955)"><g><path d="M 4.03125 -8.515625 C 1.84375 -8.515625 0.59375 -6.5625 0.59375 -4.140625 C 0.59375 -1.75 1.828125 0.125 4.046875 0.125 C 6.15625 0.125 7.484375 -1.828125 7.484375 -4.296875 C 7.484375 -6.609375 6.234375 -8.515625 4.03125 -8.515625 Z M 1.6875 -4.125 C 1.6875 -6.171875 2.515625 -7.640625 4.0625 -7.640625 C 5.390625 -7.640625 6.390625 -6.40625 6.390625 -4.25 C 6.390625 -2.296875 5.578125 -0.734375 4.046875 -0.734375 C 2.53125 -0.734375 1.6875 -2.25 1.6875 -4.125 Z M 1.6875 -4.125 "/></g></g></g><g fill="#ffffff" fill-opacity="1"><g transform="translate(172.527341, 305.923955)"><g><path d="M 0.984375 -8.390625 L 0.984375 0 L 2.046875 0 L 2.046875 -3.640625 L 4.359375 -3.640625 L 5.921875 0 L 7.015625 0 L 5.375 -3.890625 C 6.359375 -4.171875 6.9375 -5.0625 6.9375 -6.046875 C 6.9375 -7.078125 6.25 -8.390625 4.25 -8.390625 Z M 2.046875 -4.484375 L 2.046875 -7.484375 L 4.25 -7.484375 C 5.40625 -7.484375 5.890625 -6.828125 5.890625 -6.0625 C 5.890625 -5.21875 5.359375 -4.484375 4.203125 -4.484375 Z M 2.046875 -4.484375 "/></g></g></g><g fill="#ffffff" fill-opacity="1"><g transform="translate(182.843428, 305.923955)"><g/></g></g><g fill="#ffffff" fill-opacity="1"><g transform="translate(189.244491, 305.923955)"><g><path d="M 1.046875 -8.390625 L 1.046875 0 L 4.125 0 C 6.40625 0 7.59375 -2.046875 7.59375 -4.21875 C 7.59375 -6.234375 6.453125 -8.390625 3.890625 -8.390625 Z M 2.09375 -0.890625 L 2.09375 -7.515625 L 3.6875 -7.515625 C 5.078125 -7.515625 5.734375 -6.953125 6.1875 -5.9375 C 6.40625 -5.421875 6.53125 -4.859375 6.53125 -4.21875 C 6.53125 -3.359375 6.3125 -2.5625 5.890625 -1.890625 C 5.453125 -1.21875 4.71875 -0.890625 3.6875 -0.890625 Z M 2.09375 -0.890625 "/></g></g></g><g fill="#ffffff" fill-opacity="1"><g transform="translate(200.049951, 305.923955)"><g><path d="M 1.046875 -8.390625 L 1.046875 0 L 6.46875 0 L 6.46875 -0.90625 L 2.09375 -0.90625 L 2.09375 -3.96875 L 5.46875 -3.96875 L 5.46875 -4.828125 L 2.09375 -4.828125 L 2.09375 -7.484375 L 6.34375 -7.484375 L 6.34375 -8.390625 Z M 1.046875 -8.390625 "/></g></g></g><g fill="#ffffff" fill-opacity="1"><g transform="translate(209.631962, 305.923955)"><g><path d="M 3.796875 -8.515625 C 2.171875 -8.515625 0.9375 -7.6875 0.9375 -6.203125 C 0.9375 -5.1875 1.609375 -4.34375 2.828125 -4.046875 L 4.59375 -3.625 C 5.5 -3.40625 5.96875 -2.9375 5.96875 -2.265625 C 5.96875 -1.34375 5.21875 -0.765625 3.953125 -0.765625 C 2.6875 -0.765625 1.78125 -1.390625 1.46875 -2.46875 L 0.53125 -2.265625 C 1.078125 -0.640625 2.21875 0.125 3.921875 0.125 C 6 0.125 7.0625 -0.984375 7.0625 -2.390625 C 7.0625 -3.46875 6.359375 -4.296875 5.203125 -4.59375 L 3.015625 -5.140625 C 2.421875 -5.28125 1.96875 -5.65625 1.96875 -6.34375 C 1.96875 -7.171875 2.84375 -7.6875 3.765625 -7.6875 C 4.6875 -7.6875 5.65625 -7.078125 5.828125 -6.203125 L 6.78125 -6.453125 C 6.328125 -7.765625 5.265625 -8.515625 3.796875 -8.515625 Z M 3.796875 -8.515625 "/></g></g></g><g fill="#ffffff" fill-opacity="1"><g transform="translate(219.948043, 305.923955)"><g><path d="M 1.0625 -8.390625 L 1.0625 0 L 2.109375 0 L 2.109375 -8.390625 Z M 1.0625 -8.390625 "/></g></g></g><g fill="#ffffff" fill-opacity="1"><g transform="translate(225.859718, 305.923955)"><g><path d="M 4.21875 -8.515625 C 1.96875 -8.515625 0.59375 -6.625 0.59375 -4.109375 C 0.59375 -1.828125 1.828125 0.125 4.03125 0.125 C 5.109375 0.125 5.9375 -0.28125 6.40625 -0.984375 L 6.6875 0.0625 L 7.34375 0.0625 L 7.34375 -4.234375 L 4.171875 -4.234375 L 4.171875 -3.359375 L 6.265625 -3.359375 L 6.265625 -3.078125 C 6.265625 -2.171875 6.0625 -1.765625 5.765625 -1.390625 C 5.46875 -1.046875 4.875 -0.734375 4.171875 -0.734375 C 2.78125 -0.734375 1.71875 -1.890625 1.71875 -4.15625 C 1.71875 -6.21875 2.5625 -7.640625 4.140625 -7.640625 C 5.21875 -7.640625 6.03125 -6.953125 6.265625 -5.859375 L 7.25 -6.109375 C 6.84375 -7.65625 5.78125 -8.515625 4.21875 -8.515625 Z M 4.21875 -8.515625 "/></g></g></g><g fill="#ffffff" fill-opacity="1"><g transform="translate(236.665171, 305.923955)"><g><path d="M 0.953125 -8.390625 L 0.953125 0 L 1.828125 0 L 1.828125 -7.3125 L 6.109375 0 L 7.125 0 L 7.125 -8.390625 L 6.25 -8.390625 L 6.25 -1.546875 L 2.28125 -8.390625 Z M 0.953125 -8.390625 "/></g></g></g><g fill="#ffffff" fill-opacity="1"><g transform="translate(247.470625, 305.923955)"><g><path d="M 1.046875 -8.390625 L 1.046875 0 L 6.46875 0 L 6.46875 -0.90625 L 2.09375 -0.90625 L 2.09375 -3.96875 L 5.46875 -3.96875 L 5.46875 -4.828125 L 2.09375 -4.828125 L 2.09375 -7.484375 L 6.34375 -7.484375 L 6.34375 -8.390625 Z M 1.046875 -8.390625 "/></g></g></g><g fill="#ffffff" fill-opacity="1"><g transform="translate(257.052636, 305.923955)"><g><path d="M 0.984375 -8.390625 L 0.984375 0 L 2.046875 0 L 2.046875 -3.640625 L 4.359375 -3.640625 L 5.921875 0 L 7.015625 0 L 5.375 -3.890625 C 6.359375 -4.171875 6.9375 -5.0625 6.9375 -6.046875 C 6.9375 -7.078125 6.25 -8.390625 4.25 -8.390625 Z M 2.046875 -4.484375 L 2.046875 -7.484375 L 4.25 -7.484375 C 5.40625 -7.484375 5.890625 -6.828125 5.890625 -6.0625 C 5.890625 -5.21875 5.359375 -4.484375 4.203125 -4.484375 Z M 2.046875 -4.484375 "/></g></g></g></svg>