<svg xmlns="http://www.w3.org/2000/svg" xmlns:xlink="http://www.w3.org/1999/xlink" width="500" zoomAndPan="magnify" viewBox="0 0 375 374.999991" height="500" preserveAspectRatio="xMidYMid meet" version="1.0"><defs><clipPath id="5b9de589dc"><path d="M 165.613281 238 L 243.613281 238 L 243.613281 306.894531 L 165.613281 306.894531 Z M 165.613281 238 " clip-rule="nonzero"/></clipPath></defs><path fill="#03306c" d="M 287.0625 319.546875 C 286.199219 320.765625 283.835938 321.730469 280.726562 321.851562 C 280.421875 322.035156 280.058594 322.035156 279.289062 322.035156 L 115.015625 322.035156 C 102.695312 322.035156 90.195312 321.851562 77.863281 321.730469 C 72.210938 321.730469 66.433594 321.535156 60.804688 321.535156 C 55.515625 321.535156 50.300781 322.582031 44.832031 322.035156 C 44.636719 322.035156 44.527344 322.035156 44.148438 321.851562 C 43.746094 321.851562 43.199219 321.730469 42.648438 321.351562 C 39.238281 319.171875 46.304688 313.882812 47.558594 312.261719 C 51.335938 307.523438 92.863281 249.316406 93.449219 248.644531 C 99.039062 240.3125 106.691406 235.582031 114.648438 235.582031 C 126.417969 235.582031 132.378906 248.085938 141.664062 253.3125 C 153.796875 260.414062 161.765625 250.949219 167.761719 241.359375 C 171.820312 235 175.960938 228.480469 179.960938 221.9375 C 182.324219 218.160156 184.808594 214.164062 187.183594 210.167969 C 190.097656 205.621094 192.960938 201.101562 195.871094 196.421875 L 201.683594 186.964844 C 202.246094 186.222656 202.609375 185.699219 202.976562 184.96875 C 205.15625 181.859375 207.644531 179.863281 209.640625 179.863281 C 211.519531 179.863281 213.699219 181.859375 215.671875 185.152344 C 235.984375 221.449219 256.453125 258.234375 276.363281 293.9375 L 286.015625 311.398438 C 286.878906 312.628906 287.269531 314.078125 287.648438 315.175781 C 287.832031 316.625 288.011719 318.402344 287.0625 319.546875 Z M 97.40625 93.960938 C 121.191406 93.777344 140.433594 112.957031 140.433594 136.9375 C 140.433594 160.683594 121.570312 179.742188 97.785156 179.863281 C 74.023438 179.863281 54.847656 160.5 54.847656 136.9375 C 54.847656 113.320312 73.84375 94.144531 97.40625 93.960938 Z M 304.828125 177.339844 C 251.070312 177.339844 207.460938 133.769531 207.460938 79.984375 C 207.460938 67.566406 209.800781 55.699219 214.003906 44.792969 L 42.832031 44.792969 C 39.019531 44.792969 35.242188 45.160156 31.609375 45.71875 C 13.636719 48.609375 0.257812 63.667969 0.257812 81.457031 C 0.257812 165.910156 0.0742188 250.265625 0.257812 334.535156 C 0.257812 355.773438 18.730469 374.429688 39.96875 374.613281 L 290.195312 374.613281 C 297.601562 374.613281 304.304688 372.246094 310.117188 367.921875 C 321.179688 359.429688 326.089844 347.792969 326.089844 334.046875 C 326.273438 292.15625 326.273438 250.082031 326.273438 207.984375 L 326.273438 174.976562 C 319.363281 176.511719 312.199219 177.339844 304.828125 177.339844 " fill-opacity="1" fill-rule="nonzero"/><path fill="#03306c" d="M 349.546875 72.246094 L 340.03125 81.277344 C 339.3125 81.96875 338.179688 81.945312 337.472656 81.238281 L 317.34375 60.792969 C 316.183594 59.636719 314.199219 60.453125 314.199219 62.074219 L 314.199219 132.828125 C 314.199219 133.828125 313.394531 134.65625 312.382812 134.65625 L 298.929688 134.65625 C 297.933594 134.65625 297.101562 133.828125 297.101562 132.828125 L 297.101562 59.84375 C 297.101562 58.222656 295.128906 57.394531 293.984375 58.527344 L 270.601562 81.691406 C 269.832031 82.445312 268.578125 82.398438 267.882812 81.53125 L 259.941406 71.636719 C 259.367188 70.90625 259.414062 69.859375 260.085938 69.199219 L 303.488281 25.847656 C 304.195312 25.128906 305.363281 25.128906 306.070312 25.847656 L 349.59375 69.628906 C 350.3125 70.359375 350.300781 71.550781 349.546875 72.246094 Z M 304.828125 0.078125 C 260.707031 0.078125 224.921875 35.851562 224.921875 79.984375 C 224.921875 124.117188 260.707031 159.878906 304.828125 159.878906 C 348.960938 159.878906 384.734375 124.117188 384.734375 79.984375 C 384.734375 35.851562 348.960938 0.078125 304.828125 0.078125 " fill-opacity="1" fill-rule="nonzero"/><g clip-path="url(#5b9de589dc)"><path fill="#03306c" d="M 243.730469 282.46875 L 243.730469 295.574219 C 243.726562 296.289062 243.65625 297 243.515625 297.703125 C 243.375 298.40625 243.167969 299.085938 242.894531 299.75 C 242.621094 300.410156 242.285156 301.039062 241.886719 301.636719 C 241.488281 302.230469 241.035156 302.78125 240.527344 303.289062 C 240.023438 303.792969 239.46875 304.246094 238.875 304.644531 C 238.28125 305.042969 237.652344 305.378906 236.988281 305.652344 C 236.328125 305.929688 235.644531 306.136719 234.941406 306.277344 C 234.238281 306.417969 233.53125 306.488281 232.8125 306.488281 L 176.527344 306.488281 C 175.808594 306.488281 175.101562 306.417969 174.398438 306.277344 C 173.695312 306.136719 173.011719 305.929688 172.351562 305.652344 C 171.691406 305.378906 171.0625 305.042969 170.464844 304.644531 C 169.871094 304.246094 169.320312 303.792969 168.8125 303.289062 C 168.304688 302.78125 167.851562 302.230469 167.453125 301.636719 C 167.054688 301.039062 166.71875 300.410156 166.445312 299.75 C 166.171875 299.085938 165.964844 298.40625 165.824219 297.703125 C 165.683594 297 165.613281 296.289062 165.613281 295.574219 L 165.613281 282.46875 C 165.613281 282.023438 165.695312 281.59375 165.867188 281.179688 C 166.039062 280.769531 166.28125 280.402344 166.597656 280.089844 C 166.914062 279.773438 167.277344 279.527344 167.691406 279.359375 C 168.101562 279.1875 168.53125 279.101562 168.980469 279.101562 C 169.425781 279.101562 169.855469 279.1875 170.265625 279.359375 C 170.679688 279.527344 171.042969 279.773438 171.359375 280.089844 C 171.675781 280.402344 171.917969 280.769531 172.089844 281.179688 C 172.261719 281.59375 172.347656 282.023438 172.347656 282.46875 L 172.347656 294.984375 C 172.347656 295.296875 172.378906 295.609375 172.4375 295.914062 C 172.5 296.222656 172.589844 296.519531 172.710938 296.808594 C 172.832031 297.097656 172.976562 297.371094 173.152344 297.632812 C 173.324219 297.894531 173.523438 298.132812 173.746094 298.355469 C 173.964844 298.578125 174.207031 298.773438 174.46875 298.949219 C 174.726562 299.121094 175.003906 299.269531 175.292969 299.390625 C 175.582031 299.507812 175.878906 299.601562 176.1875 299.660156 C 176.492188 299.722656 176.800781 299.753906 177.117188 299.753906 L 232.226562 299.753906 C 232.539062 299.753906 232.847656 299.722656 233.15625 299.660156 C 233.460938 299.601562 233.761719 299.507812 234.050781 299.390625 C 234.339844 299.269531 234.613281 299.121094 234.875 298.949219 C 235.132812 298.773438 235.375 298.578125 235.59375 298.355469 C 235.816406 298.132812 236.015625 297.894531 236.1875 297.632812 C 236.363281 297.371094 236.511719 297.097656 236.628906 296.808594 C 236.75 296.519531 236.839844 296.222656 236.902344 295.914062 C 236.964844 295.609375 236.996094 295.296875 236.996094 294.984375 L 236.996094 282.46875 C 236.996094 282.023438 237.078125 281.59375 237.25 281.179688 C 237.421875 280.769531 237.664062 280.40625 237.980469 280.089844 C 238.296875 279.773438 238.660156 279.53125 239.074219 279.359375 C 239.484375 279.1875 239.914062 279.101562 240.363281 279.101562 C 240.808594 279.101562 241.238281 279.1875 241.648438 279.359375 C 242.0625 279.53125 242.425781 279.773438 242.742188 280.089844 C 243.058594 280.40625 243.300781 280.769531 243.472656 281.179688 C 243.644531 281.59375 243.730469 282.023438 243.730469 282.46875 Z M 193.828125 258.503906 L 200.238281 252.097656 C 200.449219 251.882812 200.695312 251.835938 200.972656 251.949219 C 201.25 252.066406 201.386719 252.273438 201.386719 252.570312 L 201.386719 284.277344 C 201.386719 284.722656 201.472656 285.152344 201.644531 285.5625 C 201.8125 285.976562 202.058594 286.339844 202.375 286.65625 C 202.6875 286.972656 203.054688 287.214844 203.464844 287.386719 C 203.878906 287.558594 204.308594 287.644531 204.753906 287.644531 C 205.199219 287.644531 205.628906 287.558594 206.042969 287.386719 C 206.457031 287.214844 206.820312 286.972656 207.136719 286.65625 C 207.449219 286.339844 207.695312 285.976562 207.863281 285.5625 C 208.035156 285.152344 208.121094 284.722656 208.121094 284.277344 L 208.121094 252.742188 C 208.121094 252.441406 208.261719 252.234375 208.535156 252.117188 C 208.8125 252.003906 209.058594 252.054688 209.269531 252.265625 L 215.511719 258.503906 C 215.832031 258.808594 216.199219 259.046875 216.609375 259.210938 C 217.019531 259.375 217.449219 259.457031 217.890625 259.457031 C 218.335938 259.457031 218.761719 259.375 219.175781 259.210938 C 219.585938 259.046875 219.953125 258.808594 220.273438 258.503906 C 220.585938 258.1875 220.828125 257.824219 221 257.410156 C 221.171875 257 221.257812 256.570312 221.257812 256.125 C 221.257812 255.675781 221.171875 255.246094 221 254.835938 C 220.828125 254.421875 220.585938 254.058594 220.273438 253.742188 L 204.671875 238.140625 L 189.066406 253.742188 C 188.753906 254.058594 188.511719 254.421875 188.339844 254.835938 C 188.167969 255.246094 188.085938 255.675781 188.085938 256.125 C 188.085938 256.570312 188.167969 257 188.339844 257.410156 C 188.511719 257.824219 188.753906 258.1875 189.066406 258.503906 C 189.390625 258.808594 189.753906 259.046875 190.167969 259.210938 C 190.578125 259.375 191.003906 259.457031 191.449219 259.457031 C 191.890625 259.457031 192.320312 259.375 192.730469 259.210938 C 193.144531 259.046875 193.507812 258.808594 193.828125 258.503906 Z M 193.828125 258.503906 " fill-opacity="1" fill-rule="nonzero"/></g></svg>